<?xml version="1.0" encoding="utf-8" ?>
<svg xmlns="http://www.w3.org/2000/svg" xmlns:xlink="http://www.w3.org/1999/xlink" width="1024" height="1024">
	<path fill="#FEFEFE" d="M0 0L1024 0L1024 1024L0 1024L0 0Z"/>
	<path fill="#28353E" d="M134.944 538.444C136.3 539.567 138.24 540.844 138.929 542.488C139.617 544.13 138.646 545.778 138.002 547.287C136.261 546.193 133.942 543.58 133.659 541.453C133.455 539.915 134.023 539.535 134.944 538.444Z"/>
	<path fill="#28353E" d="M139.78 458.709C140.984 459.335 141.587 460.016 142.067 461.237C141.695 463.951 139.76 465.868 137.941 467.785C137.683 467.703 137.405 467.669 137.168 467.538C136.256 467.033 135.686 466.228 135.45 465.245C136.175 462.79 138.219 460.705 139.78 458.709Z"/>
	<path fill="#28353E" d="M113.796 550.822C114.989 553.531 114.681 560.728 113.994 563.752C113.585 565.555 112.888 565.577 111.404 566.368C111.171 562.351 110.112 555.983 111.568 552.27C111.899 551.425 113.007 551.188 113.796 550.822Z"/>
	<path fill="#28353E" d="M82.3226 454.688C82.5707 454.812 82.8347 454.91 83.064 455.067C85.2784 456.577 88.3399 462.249 88.5421 464.944C88.6048 465.779 87.735 466.525 87.2403 467.166C87.1634 467.114 87.0832 467.066 87.0096 467.009C84.4914 465.07 81.6233 459.894 81.2612 456.757C81.1549 455.835 81.8029 455.391 82.3226 454.688Z"/>
	<path fill="#28353E" d="M61.1667 477.2C64.4 477.361 69.58 479.818 72 481.979C72.9891 482.862 72.7996 483.197 72.8377 484.464C72.7044 484.48 72.5717 484.502 72.4378 484.511C69.231 484.73 64.2821 482.754 61.9984 480.498C60.8063 479.32 61.0991 478.718 61.1667 477.2Z"/>
	<path fill="#28353E" d="M89.2026 545.213C90.4576 546.106 91.1068 546.256 91.5336 547.771C90.2536 551.496 87.4975 554.588 85.2144 557.764L83.9716 557.929L83.1947 557.335C83.0528 554.091 87.5215 548.092 89.2026 545.213Z"/>
	<path fill="#28353E" d="M73.2868 528.931C74.0361 528.903 74.5994 529.122 75.3122 529.331L75.6054 530.167C73.9261 533.548 67.8523 536.196 64.5806 538.126C64.5147 538.078 64.4405 538.04 64.383 537.982C63.4197 537.013 63.1285 536.856 63.1046 535.538C65.7347 532.616 69.8895 530.831 73.2868 528.931Z"/>
	<path fill="#28353E" d="M65.5971 505.743L66.2244 505.768C66.7659 506.924 66.7977 507.075 66.6389 508.34C64.7934 510.078 56.2258 509.146 53.4073 509.239C52.4634 508.777 52.1134 508.397 51.4098 507.643L51.9214 506.932C55.0649 505.123 61.863 505.806 65.5971 505.743Z"/>
	<path fill="#28353E" d="M111.463 447.149C112.258 447.317 112.798 447.504 113.531 447.823C115.371 451.955 114.506 458.864 114.443 463.381C113.12 463.259 112.7 463.314 111.543 462.602C109.683 458.44 110.794 451.575 111.463 447.149Z"/>
	<path fill="#27495F" d="M88.915 483.297C94.522 486.357 105.708 497.706 111.667 502.424C117.256 497.802 123.755 492.364 130.088 488.839C131.787 487.893 133.14 487.344 135.039 487.894L135.454 489.202C134.389 491.284 132.055 492.936 130.319 494.485C126.131 498.2 121.349 501.245 117.221 504.985C115.123 506.885 114.219 509.914 111.739 511.346C110.451 511.437 109.494 511.601 108.333 510.902C107.223 509.398 107.06 507.513 106.733 505.716C99.6945 499.325 91.9167 493.969 85.5601 486.811L88.915 483.297Z"/>
	<path fill="#27495F" d="M105.701 436.203C112.578 435.33 120.569 436.141 127.318 437.727C131.703 438.758 142.588 441.776 145.002 445.752C144.813 447.067 144.352 447.148 143.422 448.036C142.992 448.148 142.574 448.409 142.131 448.372C140.682 448.252 134.311 444.459 132.332 443.696Q128.974 442.41 125.488 441.531Q122.001 440.652 118.435 440.194C101.55 438.115 83.653 443.335 70.3572 453.874C56.7448 464.663 48.5694 480.296 46.7025 497.493C44.7914 515.097 49.6168 533.545 60.8011 547.415C72.5142 561.941 88.0896 570.399 106.617 572.43C112.676 572.657 118.693 572.697 124.625 571.317C129.499 570.183 135.899 566.472 140.75 566.711C141.562 566.751 141.317 566.751 141.857 567.461C141.689 568.229 141.453 568.619 140.915 569.223C137.537 573.014 123.606 575.588 118.529 576.145Q116.866 576.314 115.197 576.401Q113.527 576.488 111.856 576.492Q110.184 576.496 108.515 576.417Q106.845 576.338 105.181 576.177Q103.518 576.015 101.864 575.772Q100.21 575.528 98.5706 575.203Q96.931 574.878 95.3095 574.472Q93.688 574.066 92.0886 573.58Q90.4892 573.094 88.9158 572.53Q87.3424 571.966 85.799 571.324Q84.2554 570.682 82.7456 569.965Q81.2358 569.248 79.7633 568.457Q78.2908 567.666 76.8594 566.802Q75.4279 565.939 74.0409 565.006Q72.6539 564.073 71.3149 563.073Q69.9758 562.073 68.6879 561.007Q67.3183 559.882 66.0056 558.691Q64.6929 557.5 63.4404 556.246Q62.1879 554.992 60.9985 553.678Q59.8092 552.364 58.6859 550.993Q57.5626 549.622 56.5081 548.198Q55.4536 546.773 54.4704 545.298Q53.4872 543.824 52.5777 542.302Q51.6682 540.781 50.8346 539.217Q50.001 537.653 49.2454 536.05Q48.4897 534.447 47.8138 532.808Q47.1378 531.17 46.5433 529.5Q45.9487 527.83 45.437 526.133Q44.9253 524.437 44.4976 522.717Q44.07 520.997 43.7274 519.258Q43.3848 517.519 43.1282 515.765Q42.8715 514.011 42.7014 512.247C40.9122 493.556 46.1581 474.636 58.2984 460.169C70.4877 445.644 86.9573 437.77 105.701 436.203Z"/>
	<path fill="#27495F" d="M99.8337 414.989L124.731 414.864L124.562 425.891C121.507 425.75 118.517 425.8 115.462 425.93C119.4 427.436 123.789 427.96 127.891 428.938C133.689 430.32 139.093 432.458 144.49 434.972C146.435 435.878 149.11 436.876 150.32 438.727C150.775 439.423 150.497 439.698 150.318 440.439C149.279 441.153 149.239 441.223 147.946 440.851C144.651 439.903 141.558 437.825 138.446 436.396C132.166 433.512 123.967 431.828 117.122 431.281Q115.302 431.123 113.476 431.055Q111.65 430.988 109.822 431.011Q107.995 431.035 106.172 431.15Q104.348 431.264 102.532 431.469Q100.717 431.675 98.9133 431.97Q97.11 432.265 95.3237 432.65Q93.5374 433.035 91.7725 433.508Q90.0076 433.982 88.2685 434.542Q86.5293 435.103 84.8202 435.749Q83.1112 436.396 81.4364 437.127Q79.7617 437.858 78.1254 438.671Q76.4891 439.484 74.8954 440.378Q73.3016 441.272 71.7544 442.244Q70.2071 443.216 68.7102 444.264Q67.2133 445.312 65.7704 446.433Q64.3275 447.554 62.9423 448.746Q61.5652 449.947 60.2487 451.215Q58.9321 452.482 57.6792 453.812Q56.4263 455.142 55.2401 456.532Q54.0539 457.922 52.9372 459.369Q51.8205 460.815 50.776 462.315Q49.7315 463.814 48.7618 465.363Q47.792 466.912 46.8994 468.506Q46.0067 470.101 45.1931 471.737Q44.3796 473.373 43.6473 475.048Q42.9149 476.722 42.2655 478.43Q41.6161 480.138 41.0511 481.876Q40.4861 483.614 40.007 485.377Q39.5278 487.141 39.1356 488.925Q38.7435 490.71 38.4392 492.512Q38.1349 494.314 37.9193 496.128Q37.7037 497.943 37.5773 499.766Q37.5126 500.728 37.4717 501.692Q37.4309 502.655 37.4139 503.62Q37.397 504.584 37.4039 505.548Q37.4109 506.513 37.4417 507.477Q37.4726 508.441 37.5274 509.404Q37.5821 510.366 37.6608 511.328Q37.7394 512.289 37.8418 513.248Q37.9442 514.207 38.0704 515.163Q38.1966 516.119 38.3464 517.072Q38.4962 518.025 38.6697 518.973Q38.8431 519.922 39.04 520.866Q39.2368 521.81 39.4571 522.749Q39.6773 523.688 39.9207 524.621Q40.1642 525.555 40.4307 526.482Q40.6972 527.408 40.9866 528.328Q41.276 529.248 41.5881 530.161Q41.9003 531.073 42.2349 531.978Q42.5696 532.882 42.9265 533.778Q43.2835 534.674 43.6626 535.561Q44.0417 536.448 44.4426 537.325Q44.8436 538.202 45.2662 539.069Q45.6887 539.936 46.1327 540.792Q46.5766 541.648 47.0417 542.493Q47.5067 543.338 47.9925 544.171Q48.4784 545.005 48.9847 545.825Q49.4911 546.646 50.0176 547.454Q50.5441 548.262 51.0906 549.057Q51.637 549.852 52.2029 550.633Q52.7689 551.413 53.354 552.18Q53.9391 552.947 54.5431 553.699Q55.1471 554.451 55.7695 555.187Q56.3919 555.924 57.0324 556.645Q58.2294 558.007 59.4929 559.307Q60.7564 560.608 62.0831 561.844Q63.4099 563.08 64.7966 564.248Q66.1833 565.416 67.6266 566.514Q69.0699 567.612 70.5661 568.636Q72.0623 569.66 73.6077 570.609Q75.1531 571.557 76.7439 572.427Q78.3347 573.297 79.967 574.087Q81.5992 574.877 83.2687 575.584Q84.9383 576.291 86.6411 576.914Q88.3438 577.538 90.0756 578.075Q91.8073 578.613 93.5637 579.063Q95.32 579.513 97.0967 579.876Q98.8733 580.238 100.666 580.511Q102.458 580.785 104.262 580.968Q106.066 581.152 107.877 581.245C118.667 582.255 129.355 580.068 139.39 576.227C142.084 575.195 145.171 573.115 147.949 572.629C149.058 572.434 150.163 572.582 151.126 573.169L151.138 573.944C147.258 578.781 137.565 582.01 131.756 583.541C112.362 588.655 90.4779 585.255 73.2574 575.12Q72.3987 574.616 71.5527 574.092Q70.7067 573.568 69.8739 573.022Q69.041 572.477 68.2219 571.912Q67.4027 571.346 66.5978 570.761Q65.7928 570.175 65.0025 569.57Q64.2122 568.965 63.4371 568.34Q62.6619 567.716 61.9024 567.072Q61.1429 566.429 60.3994 565.767Q59.656 565.105 58.9291 564.425Q58.2022 563.745 57.4922 563.047Q56.7823 562.35 56.0898 561.635Q55.3972 560.92 54.7225 560.188Q54.0478 559.456 53.3914 558.708Q52.7349 557.959 52.0971 557.195Q51.4592 556.431 50.8404 555.651Q50.2216 554.872 49.6222 554.077Q49.0228 553.282 48.4431 552.473Q47.8635 551.664 47.304 550.841Q46.7444 550.017 46.2053 549.181Q45.6662 548.344 45.1479 547.494Q44.6296 546.644 44.1324 545.782Q43.6352 544.92 43.1594 544.045Q42.6836 543.171 42.2294 542.285Q41.7753 541.4 41.3431 540.503Q40.911 539.606 40.501 538.699Q40.0911 537.792 39.7036 536.875Q39.3161 535.958 38.9514 535.032Q38.5866 534.106 38.2448 533.171Q37.9029 532.236 37.5843 531.293Q37.2655 530.35 36.9702 529.4Q36.6748 528.449 36.4029 527.492Q36.1311 526.534 35.8829 525.57Q35.6297 524.607 35.4005 523.638Q35.1714 522.669 34.9666 521.695Q34.7617 520.721 34.5812 519.742Q34.4008 518.763 34.2448 517.779Q34.0889 516.796 33.9575 515.809Q33.8261 514.822 33.7194 513.832Q33.6128 512.842 33.5308 511.85Q33.4489 510.858 33.3918 509.864Q33.3346 508.87 33.3023 507.875Q33.27 506.88 33.2626 505.884Q33.2551 504.889 33.2726 503.893Q33.29 502.898 33.3322 501.903Q33.3745 500.909 33.4416 499.915Q33.5087 498.922 33.6005 497.93Q33.6924 496.939 33.809 495.95Q33.9256 494.962 34.0668 493.976Q34.2081 492.991 34.3739 492.009Q34.5397 491.027 34.73 490.05Q34.9202 489.073 35.1348 488.1Q35.3494 487.128 35.5882 486.162Q35.8271 485.195 36.0899 484.235Q36.3528 483.275 36.6396 482.321Q36.9263 481.368 37.2368 480.422Q37.5473 479.476 37.8813 478.538Q38.2153 477.6 38.5726 476.671Q38.9299 475.742 39.3103 474.822Q39.6907 473.902 40.094 472.991Q40.4973 472.081 40.9231 471.181Q41.349 470.281 41.7972 469.392Q42.2454 468.503 42.7156 467.626Q43.1859 466.748 43.6779 465.883Q44.1699 465.017 44.6834 464.164Q45.6362 462.579 46.6632 461.041Q47.6903 459.503 48.7892 458.015Q49.8881 456.528 51.0564 455.094Q52.2248 453.661 53.4599 452.284Q54.695 450.908 55.9941 449.591Q57.2932 448.275 58.6534 447.022Q60.0135 445.769 61.4317 444.582Q62.8498 443.395 64.3228 442.277Q65.7957 441.158 67.3201 440.111Q68.8445 439.064 70.4169 438.091Q71.9893 437.117 73.6062 436.219Q75.223 435.321 76.8807 434.502Q78.5384 433.682 80.2332 432.941Q81.928 432.201 83.656 431.542Q85.384 430.883 87.1414 430.307Q88.8988 429.731 90.6815 429.239C95.9169 427.807 101.416 427.619 106.692 426.282L106.432 425.792L107.118 425.958L106.157 426.348L105.704 425.667C103.881 425.406 101.944 425.615 100.107 425.689L99.8337 414.989Z"/>
	<path fill="#27495F" d="M444.062 451.679C446.095 451.543 448.122 451.447 450.159 451.488C464.544 451.777 475.48 457.403 485.345 467.592C480.88 472.718 474.901 477.049 469.686 481.426C469.502 481.213 469.321 480.998 469.134 480.788C463.793 474.764 457.914 471.218 449.662 470.862C444.989 470.661 439.231 471.254 435.728 474.711C433.656 476.755 432.778 479.335 432.842 482.215C433.107 494.169 454.055 496.965 462.745 500.146C468.696 502.324 474.607 505.153 479.163 509.653C484.676 515.097 487.407 522.298 487.406 529.989C487.405 538.671 484.868 545.764 478.616 551.918C469.855 560.541 457.836 563.005 445.96 562.873Q442.449 562.662 438.965 562.186C427.017 560.499 414.19 554.798 406.8 544.925C411.884 539.921 416.186 534.098 420.949 528.781C422.489 530.892 424.153 532.833 426.128 534.551C432.889 540.434 441.67 544.102 450.744 543.254C455.012 542.855 459.558 541.223 462.317 537.79C464.132 535.531 465.176 532.585 464.735 529.68C463.062 518.644 444.455 515.684 435.803 512.573C430.852 510.794 425.985 508.606 421.78 505.398C415.883 500.9 412.732 494.844 411.842 487.554C410.891 479.761 412.283 470.286 417.341 464.086C423.778 456.194 434.307 452.833 444.062 451.679Z"/>
	<path fill="#27495F" d="M493.393 453.478L564.898 453.522L564.925 471.441L515.105 471.535Q515.561 484.954 515.485 498.38C529.319 498.056 543.225 498.333 557.067 498.304L557.013 516.054L515.567 516.237L515.548 522.75L515.601 543.422L567.421 543.509C567.525 549.846 567.468 556.196 567.489 562.534C542.891 562.195 518.107 562.065 493.516 562.705L493.393 453.478Z"/>
	<path fill="#27495F" d="M330.572 453.696L401.743 453.503C401.86 459.498 401.727 465.52 401.694 471.518L353.597 471.588Q353.515 484.719 353.714 497.849C366.65 498.135 379.646 497.777 392.592 497.839L392.603 516.411C379.94 515.09 366.546 516.002 353.81 516.059L353.925 526.817L353.939 543.489Q379.463 543.219 404.989 543.203C404.699 549.614 404.789 556.084 404.717 562.504C380.095 562.773 355.438 562.419 330.812 562.45C330.329 526.222 330.521 489.93 330.572 453.696Z"/>
	<path fill="#27495F" d="M151.761 453.389L179.204 453.385C194.569 453.396 209.001 452.262 221.511 462.95C228.413 468.846 232.08 476.557 232.718 485.585C233.417 495.475 231.343 504.388 224.694 511.945C216.224 521.573 204.509 523.091 192.43 523.962L172.026 524.151Q172.395 544.032 172.414 563.917L151.621 563.818C152.812 527.045 151.556 490.172 151.761 453.389Z"/>
	<path fill="#FEFEFE" d="M172.871 471.728C182.731 471.398 197.879 469.528 205.722 476.572C208.944 479.465 210.869 483.987 211.049 488.289C211.268 493.531 208.866 497.806 205.338 501.473C196.435 507.911 182.97 506.031 172.498 506.064C172.517 499.547 171.241 476.269 172.871 471.728Z"/>
	<path fill="#27495F" d="M643.001 453.918Q653.759 453.967 664.517 453.843Q664.024 490.819 664.319 527.798C664.348 537.622 665.404 553.293 664.278 562.341L646.723 562.519C635.622 546.946 623.908 531.744 612.43 516.447C606.756 508.887 601.492 500.652 595.353 493.489L595.46 562.506C588.633 562.265 581.774 562.329 574.942 562.28L574.784 454.031C580.52 454.024 586.277 453.893 591.997 454.376C598.795 462.429 604.719 471.332 610.965 479.825Q626.779 501.411 643.031 522.668L643.001 453.918Z"/>
	<path fill="#27495F" d="M239.026 453.366C251.162 452.986 284.45 452.361 294.666 455.361C303.548 457.969 312.067 463.562 316.541 471.845C321.032 480.158 321.656 492.14 318.855 501.081C315.495 511.809 307.413 517.225 297.96 522.226Q314.17 541.481 328.27 562.329C323.568 562.47 318.834 562.351 314.128 562.344L301.973 562.457C294.254 549.945 285.164 537.531 275.97 526.053L261.018 525.978L261.001 562.369C253.645 562.172 246.273 562.291 238.914 562.325C239.334 526.024 238.929 489.674 239.026 453.366Z"/>
	<path fill="#FEFEFE" d="M266.471 471.721C272.134 471.637 278.02 471.263 283.623 472.217C288.261 473.007 292.411 474.898 295.062 478.934C297.997 483.403 298.615 489.652 297.529 494.799C296.504 499.653 294.311 502.363 290.265 505.065C281.336 509.485 270.697 508.303 261.035 508.23L260.978 486.061C260.961 481.656 260.57 476.874 261.291 472.523C262.872 471.652 264.71 471.779 266.471 471.721Z"/>
	<path fill="#27495F" d="M718.791 452.158C723.125 451.457 728.426 451.738 732.796 452.239C745.164 453.657 758.515 459.298 766.374 469.26Q759.349 476.282 752.478 483.455C744.83 476.626 735.966 472.113 725.521 472.037C716.75 471.973 708.388 476.308 702.3 482.448C695.581 489.225 692.617 498.065 692.751 507.508C692.896 517.707 696.645 526.222 703.979 533.297C710.481 539.571 718.364 542.791 727.462 542.493C738.466 542.133 746.663 536.858 753.965 529.013C757.845 533.047 761.911 536.886 765.962 540.747C772.643 523.606 780.545 506.865 787.729 489.916C792.712 478.16 796.809 465.754 802.662 454.42C809.13 454.06 815.578 454.225 822.05 454.367C828.059 469.538 835.019 484.51 841.754 499.373Q849.293 516.002 856.47 532.79C860.826 542.724 865.383 552.58 869.255 562.715L846.412 562.966C842.475 553.605 838.426 544.366 834.044 535.202C819.368 535.537 804.635 535.193 789.958 534.967Q784.454 548.793 778.661 562.501Q767.799 562.671 756.937 562.472Q759.5 556.53 762.134 550.618C753.178 555.31 746.9 560.834 736.613 562.709C721.71 565.425 707.439 561.945 695.06 553.334C683.145 545.045 674.176 532.388 671.686 517.977C669.126 503.16 671.806 487.367 680.662 475.048C689.852 462.265 703.417 454.62 718.791 452.158Z"/>
	<path fill="#FEFEFE" d="M811.902 482.968C814.607 486.56 817.338 495.884 819.199 500.452C821.325 505.671 823.67 510.82 825.953 515.973L812.985 516.057Q805.501 516.07 798.017 515.981C802.586 504.937 807.781 494.196 811.902 482.968Z"/>
	<path fill="#27495F" d="M924.951 436.215C942.057 436.086 958.04 443.517 970.295 455.326C981.838 466.449 987.844 483.165 988.077 499.007C988.347 517.34 981.499 532.875 968.755 545.937C957.287 557.692 941.621 563.905 925.347 564.039C909.813 563.897 895.642 559.154 883.805 548.881C870.426 537.27 862.794 521.386 861.662 503.745C860.528 486.067 866.779 469.581 878.522 456.484C890.868 442.715 906.946 437.197 924.951 436.215Z"/>
	<path fill="#FEFEFE" d="M925.573 446.222C938.783 446.392 947.943 450.62 958.536 458.04L961.99 454.913C965.732 456.93 968.288 458.933 970.862 462.349L967.749 468.116C974 476.283 977.167 484.037 978.098 494.362C979.461 509.477 975.109 523.766 965.338 535.434Q964.501 536.441 963.615 537.406Q962.729 538.37 961.795 539.289Q960.862 540.208 959.885 541.08Q958.907 541.951 957.887 542.773Q956.867 543.594 955.807 544.364Q954.747 545.134 953.651 545.85Q952.554 546.566 951.423 547.226Q950.292 547.887 949.13 548.49Q947.967 549.093 946.776 549.638Q945.585 550.182 944.368 550.667Q943.151 551.152 941.912 551.575Q940.672 551.998 939.413 552.359Q938.154 552.72 936.879 553.018Q935.603 553.316 934.315 553.55Q933.026 553.784 931.727 553.953Q930.429 554.122 929.123 554.227C928.828 554.26 928.532 554.298 928.236 554.327C915.275 555.595 900.23 549.998 890.488 541.568C879.959 532.457 872.482 518.644 871.644 504.676C870.76 489.951 875.421 474.19 885.369 463.114C895.911 451.377 910.253 447.003 925.573 446.222Z"/>
	<path fill="#319849" d="M964.74 471.914C968.599 477.825 971.582 484.359 972.624 491.379C974.765 505.799 971.549 518.467 962.809 530.091C955.293 540.087 944.145 547.476 931.639 549.211C918.639 551.015 906.066 547.088 895.713 539.165C885.439 531.302 878.577 519.946 876.885 507.088Q876.723 505.842 876.623 504.59Q876.524 503.338 876.485 502.082Q876.447 500.827 876.471 499.571Q876.495 498.315 876.581 497.061Q876.667 495.808 876.815 494.561Q876.963 493.313 877.172 492.074Q877.381 490.836 877.651 489.609Q877.921 488.382 878.251 487.17Q878.581 485.958 878.97 484.764Q879.36 483.57 879.808 482.396Q880.256 481.222 880.761 480.072Q881.267 478.922 881.828 477.799Q882.39 476.675 883.006 475.58Q883.622 474.486 884.292 473.423Q884.962 472.36 885.683 471.331Q886.404 470.303 887.175 469.311Q887.894 468.377 888.658 467.48Q889.422 466.583 890.23 465.724Q891.038 464.866 891.887 464.048Q892.736 463.231 893.625 462.457Q894.513 461.682 895.439 460.953Q896.365 460.223 897.325 459.541Q898.286 458.858 899.279 458.223Q900.272 457.589 901.296 457.004Q902.319 456.42 903.37 455.886Q904.422 455.353 905.498 454.873Q906.574 454.392 907.672 453.965Q908.771 453.538 909.89 453.166Q911.008 452.794 912.143 452.478Q913.279 452.162 914.428 451.902Q915.578 451.643 916.739 451.44Q917.9 451.238 919.07 451.093C932.55 449.46 944.608 453.507 955.226 461.811C952.313 468.539 947.422 474.574 943.263 480.585Q935.331 492.252 927.058 503.679L922.12 510.545C920.22 508.202 918.289 506.014 916.143 503.893C911.566 499.296 901.371 486.403 896.625 484.212C894.978 484.251 893.937 484.756 892.629 485.708C891.297 486.677 889.657 488.066 889.7 489.876C889.776 493.025 919.821 531.337 924.039 535.951C937.817 514.862 951.96 493.613 964.74 471.914Z"/>
</svg>
