<?xml version="1.0" encoding="utf-8" ?>
<svg xmlns="http://www.w3.org/2000/svg" xmlns:xlink="http://www.w3.org/1999/xlink" width="1024" height="1024">
	<path fill="#274A60" d="M133.814 538.624C134.352 538.738 134.891 538.878 135.406 539.072C136.91 539.641 138.253 540.787 138.785 542.33C139.359 543.996 138.785 545.213 138.159 546.732L137.623 546.665C136.703 545.991 135.878 545.377 135.201 544.445C133.809 542.527 133.401 540.947 133.814 538.624Z"/>
	<path fill="#274A60" d="M139.771 458.779C140.742 459.391 141.173 459.879 141.789 460.844C141.953 463.817 139.78 465.675 137.965 467.753C137.725 467.591 137.465 467.455 137.244 467.269C136.167 466.359 136.005 465.98 135.82 464.668C136.457 462.335 138.244 460.599 139.771 458.779Z"/>
	<path fill="#274A60" d="M81.7167 454.61C83.656 455.159 84.6317 456.54 85.7091 458.149C87.3814 460.647 88.7742 463.819 88.1421 466.836C86.2808 466.419 85.0328 464.939 83.9653 463.45C82.0358 460.76 81.2141 457.867 81.7167 454.61Z"/>
	<path fill="#274A60" d="M60.7427 477.341C63.3441 477.542 65.6817 478.145 68.0383 479.29C70.3492 480.413 72.197 481.609 73.0111 484.118C70.7368 484.836 67.4729 483.852 65.4505 482.753C62.9554 481.397 61.6137 480.047 60.7427 477.341Z"/>
	<path fill="#274A60" d="M89.1579 545.243C89.4754 545.406 89.893 545.606 90.1665 545.826C90.7229 546.273 91.1918 546.692 91.2239 547.429C91.3634 550.627 86.8179 555.435 84.9438 557.987C83.7235 557.655 84.0019 557.753 83.3618 556.834C83.6455 552.828 87.0384 548.586 89.1579 545.243Z"/>
	<path fill="#274A60" d="M73.521 528.89L75.0098 529.319L75.3771 530.171C73.9533 533.36 67.845 536.221 64.8149 538.056C63.786 537.529 63.6809 537.41 63.0793 536.419C63.1292 536.248 63.1574 536.07 63.2291 535.907C64.5678 532.867 70.6141 530.243 73.521 528.89Z"/>
	<path fill="#274A60" d="M112.686 550.641C113.64 551.191 114.007 551.246 114.337 552.361C115.539 556.411 114.68 562.754 112.548 566.289L111.732 566.238C111.481 565.756 111.362 565.587 111.234 564.991C110.38 561.017 110.413 554.037 112.686 550.641Z"/>
	<path fill="#274A60" d="M57.1011 505.654C59.5718 505.554 62.7355 505.294 65.1574 505.854C66.2831 506.114 66.4391 506.256 67.0322 507.168L66.6502 508.042C65.5871 509.136 64.0458 509.102 62.6076 509.295C58.7663 509.405 55.7737 509.458 52.1065 508.144L51.8698 506.896L51.7975 507.89L51.4866 507.494C53.4191 506.284 54.9112 506.073 57.1011 505.654Z"/>
	<path fill="#274A60" d="M111.955 446.93C112.152 447.058 112.359 447.17 112.545 447.313C113.866 448.331 114.146 449.638 114.365 451.204C114.795 454.283 115.408 461.336 113.59 463.812C112.617 463.231 111.972 462.807 111.46 461.761C109.52 457.801 110.79 450.991 111.955 446.93Z"/>
	<path fill="#274A60" d="M88.944 483.91C94.6637 485.75 106.671 498.19 111.441 502.657C116.095 498.356 126.042 489.673 131.95 488.166C133.181 487.852 133.796 487.871 134.863 488.524L134.939 489.494C133.67 491.423 131.866 492.865 130.164 494.403C126.789 497.155 123.285 499.825 120.062 502.752C117.414 505.156 114.88 508.168 111.882 510.134C110.83 510.824 110.006 511.148 108.725 511.164C107.033 509.695 107.358 506.765 105.918 505.038C103.821 502.522 100.407 500.262 97.8789 498.131C93.6243 494.545 89.5007 490.861 85.6449 486.845C86.4926 485.773 87.8902 484.807 88.944 483.91Z"/>
	<path fill="#274A60" d="M106.186 436.2C116.995 435.053 128.883 437.244 138.812 441.591C140.892 442.502 144.128 443.696 144.991 445.926C144.607 447.109 144.118 447.513 143.172 448.296C141.567 448.542 140.211 447.427 138.84 446.704C132.743 443.485 126.331 441.221 119.495 440.238C103.089 437.877 84.5878 442.858 71.4378 452.899C57.5893 463.474 49.1819 478.637 46.9378 495.866Q46.7048 497.556 46.5565 499.255Q46.4082 500.955 46.345 502.659Q46.2819 504.364 46.304 506.07Q46.3261 507.775 46.4335 509.478Q46.5409 511.18 46.7332 512.875Q46.9256 514.57 47.2024 516.253Q47.4792 517.937 47.8398 519.604Q48.2005 521.271 48.644 522.918Q49.0875 524.566 49.6128 526.189Q50.1381 527.811 50.7439 529.406Q51.3496 531.001 52.0344 532.563Q52.7191 534.126 53.4811 535.652Q54.243 537.178 55.0804 538.664Q55.9177 540.15 56.8282 541.593Q57.7388 543.035 58.7203 544.43Q59.7019 545.826 60.7519 547.17C72.423 562.186 88.7388 570.092 107.385 572.39C118.164 572.949 125.326 570.837 135.456 567.796C137.48 567.189 139.804 566.232 141.756 567.282C141.577 568.414 141.787 568.073 141.155 568.865C137.777 573.09 126.139 575.074 121.012 575.746C102.738 578.14 84.7705 573.392 70.2386 562.04Q68.8327 560.949 67.4826 559.789Q66.1324 558.629 64.8414 557.404Q63.5504 556.179 62.3216 554.892Q61.0929 553.604 59.9294 552.257Q58.766 550.91 57.6707 549.508Q56.5753 548.105 55.5509 546.649Q54.5264 545.194 53.5753 543.69Q52.6241 542.185 51.7487 540.636Q50.8732 539.086 50.0756 537.495Q49.278 535.904 48.5602 534.276Q47.8424 532.647 47.2061 530.985Q46.5698 529.323 46.0167 527.631Q45.4636 525.939 44.9949 524.222Q44.5262 522.505 44.1432 520.767Q43.7601 519.029 43.4637 517.274Q43.1672 515.519 42.958 513.752C40.7942 495.315 45.873 475.743 57.5686 461.231C69.818 446.032 87.0406 438.235 106.186 436.2Z"/>
	<path fill="#274A60" d="M99.961 415.114C108.132 414.916 116.335 415.039 124.509 415.017C124.568 417.864 124.819 420.923 124.541 423.751C124.346 425.735 123.641 425.868 122.193 427.047C122.367 427.726 146.633 433.684 149.969 438.51C150.491 439.264 150.313 439.333 150.21 440.175C149.004 440.779 148.29 440.7 146.982 440.346C143.657 439.448 140.669 437.521 137.582 436.058C132.05 433.437 125.75 432.068 119.688 431.434C100.054 429.382 79.6927 434.718 64.3722 447.356Q62.9621 448.521 61.611 449.754Q60.2599 450.986 58.9711 452.284Q57.6823 453.582 56.4588 454.941Q55.2354 456.301 54.0803 457.719Q52.9252 459.137 51.8412 460.61Q50.7573 462.083 49.7471 463.608Q48.7369 465.133 47.8029 466.705Q46.8689 468.278 46.0133 469.894Q45.1578 471.511 44.3828 473.167Q43.6078 474.824 42.9152 476.517Q42.2226 478.21 41.6141 479.934Q41.0056 481.659 40.4827 483.412Q39.9598 485.164 39.5236 486.941Q39.0875 488.717 38.7393 490.512Q38.3911 492.308 38.1316 494.118Q37.8721 495.929 37.7019 497.75C35.7387 518.69 42.3472 538.917 55.7269 555.034C70.4283 572.743 88.3892 579.446 110.715 581.467C121.956 581.515 131.224 579.372 141.597 575.186C144.165 574.15 148.456 571.961 151.083 573.073C150.612 572.52 150.92 572.704 150.115 572.602L150.537 574.222C146.026 579.7 135.489 582.807 128.778 584.145C109.089 588.07 86.7646 584.267 70.0189 573.015Q69.169 572.454 68.3334 571.873Q67.4978 571.291 66.6771 570.689Q65.8563 570.086 65.0508 569.464Q64.2454 568.841 63.4558 568.198Q62.6662 567.556 61.8929 566.893Q61.1196 566.231 60.3631 565.55Q59.6066 564.868 58.8674 564.168Q58.1282 563.468 57.4067 562.75Q56.6853 562.032 55.982 561.295Q55.2787 560.559 54.5941 559.806Q53.9095 559.052 53.2439 558.282Q52.5783 557.511 51.9323 556.724Q51.2862 555.938 50.66 555.135Q50.0338 554.332 49.4279 553.514Q48.822 552.696 48.2367 551.863Q47.6514 551.03 47.0872 550.182Q46.523 549.335 45.9801 548.473Q45.4372 547.612 44.9161 546.738Q44.395 545.863 43.8959 544.976Q43.3968 544.088 42.92 543.189Q42.4433 542.289 41.9892 541.378Q41.5351 540.467 41.1039 539.544Q40.6728 538.622 40.2648 537.689Q39.8569 536.756 39.4724 535.814Q39.0879 534.871 38.7271 533.919Q38.3663 532.967 38.0295 532.006Q37.6926 531.045 37.3799 530.076Q37.0672 529.108 36.7788 528.131Q36.4905 527.155 36.2266 526.171Q35.9627 525.188 35.7236 524.199Q35.4844 523.209 35.27 522.214Q35.0557 521.218 34.8663 520.218Q34.6784 519.255 34.5143 518.288Q34.3503 517.321 34.2102 516.35Q34.0701 515.379 33.9541 514.405Q33.8381 513.43 33.7462 512.454Q33.6544 511.477 33.5867 510.498Q33.519 509.52 33.4755 508.54Q33.432 507.559 33.4128 506.579Q33.3936 505.598 33.3987 504.617Q33.4037 503.636 33.4331 502.655Q33.4624 501.674 33.516 500.695Q33.5695 499.715 33.6473 498.737Q33.7251 497.759 33.827 496.784Q33.929 495.808 34.055 494.835Q34.1811 493.862 34.3312 492.893Q34.4813 491.923 34.6553 490.958Q34.8293 489.992 35.0271 489.031Q35.225 488.07 35.4465 487.115Q35.6681 486.159 35.9132 485.209Q36.1583 484.259 36.4268 483.316Q36.6954 482.372 36.9872 481.436Q37.279 480.499 37.5938 479.57Q37.9087 478.641 38.2465 477.72Q38.5842 476.799 38.9447 475.886Q39.3051 474.974 39.688 474.07Q40.0709 473.167 40.476 472.274Q40.8811 471.38 41.3082 470.497Q41.7353 469.614 42.1842 468.742Q42.633 467.869 43.1032 467.008Q43.5735 466.147 44.0649 465.298Q44.5563 464.449 45.0685 463.612Q45.5808 462.776 46.1136 461.952Q46.6464 461.128 47.1994 460.318C57.1961 445.731 73.2025 434.069 90.2897 429.389C95.8301 427.872 101.643 427.23 107.293 426.191L100.121 425.392L99.961 415.114Z"/>
	<path fill="#274A60" d="M445.949 451.708Q447.338 451.629 448.729 451.62C463.621 451.541 475.078 457.552 485.399 467.857C480.434 472.582 475.009 476.982 469.693 481.31C469.469 481.057 469.25 480.799 469.023 480.549C463.584 474.587 456.98 471.037 448.763 470.81C444.523 470.693 438.964 471.39 435.874 474.53C434.053 476.38 432.849 479.092 432.881 481.705C433.039 494.626 455.972 497.611 465.184 501.202C470.496 503.273 475.536 506.045 479.565 510.137C485.014 515.672 487.545 522.916 487.464 530.584C487.377 538.745 484.531 545.99 478.575 551.681C468.729 561.09 456.94 562.693 443.868 562.468C428.291 560.814 417.207 556.468 406.626 544.685C411.674 539.651 416.242 534.309 420.84 528.87C422.799 531.207 424.964 533.491 427.328 535.425C433.915 540.81 442.529 544.389 451.157 543.323C455.438 542.794 460.13 540.788 462.772 537.253C464.348 535.143 465.214 532.444 464.756 529.812C462.722 518.127 443.761 515.373 434.72 512.047C430.249 510.403 425.794 508.232 421.984 505.35C416.182 500.959 412.799 494.84 411.881 487.666C410.822 479.395 412.353 470.533 417.712 463.953C424.783 455.27 435.303 452.725 445.949 451.708Z"/>
	<path fill="#274A60" d="M493.513 453.572L564.55 453.622L564.601 471.402Q539.844 471.18 515.086 471.41C515.552 480.381 515.306 489.476 515.414 498.466Q536.21 498.263 557.007 498.347L556.97 515.973L515.497 516.092L515.456 523.75L515.487 543.509L567.256 543.607C567.406 549.866 567.323 556.148 567.345 562.409Q530.467 561.87 493.591 562.495L493.513 453.572Z"/>
	<path fill="#274A60" d="M330.533 453.716C338.937 453.395 347.425 453.648 355.837 453.65L401.524 453.597L401.526 471.41Q377.528 471.3 353.53 471.501Q353.496 484.668 353.64 497.834Q373.067 497.758 392.492 497.991L392.438 516.12C379.514 515.211 366.571 515.537 353.627 515.728L353.607 525.937Q353.585 534.778 353.7 543.618L405.106 543.49C404.216 549.707 404.571 556.178 404.597 562.445Q367.702 562.175 330.807 562.415L330.533 453.716Z"/>
	<path fill="#274A60" d="M151.832 453.441L177.932 453.427C193.895 453.409 209.805 452.427 222.505 463.934C229.344 470.13 232.647 478.415 232.962 487.554C233.279 496.732 230.472 505.392 224.102 512.121C215.549 521.156 203.799 523.21 191.875 523.622C185.262 523.93 178.598 523.859 171.976 523.933Q172.251 543.761 172.184 563.591L151.859 563.585C152.329 526.857 151.746 490.164 151.832 453.441ZM178.12 471.21L172.316 471.575C171.809 483.184 172.381 494.719 172.233 506.318C182.476 506.476 192.864 507.394 202.48 503.166C206.731 500.507 209.646 497.261 210.793 492.219C211.755 487.992 211.053 483.451 208.632 479.827C205.321 474.869 199.677 472.62 194.006 471.661C188.789 470.778 183.385 470.908 178.12 471.21Z"/>
	<path fill="#274A60" d="M643.06 454.009L664.395 454.029C663.904 490.163 664.834 526.284 664.435 562.409C658.599 562.161 652.682 562.345 646.838 562.355Q630.48 540.156 613.885 518.135C607.716 509.864 601.76 501.438 595.311 493.379C596.037 516.294 595.452 539.446 595.44 562.383C588.642 562.12 581.866 562.133 575.064 562.189C574.247 526.277 575.012 490.155 574.964 454.225Q583.452 453.956 591.928 454.485C601.778 466.931 610.874 480.023 620.288 492.801C627.792 502.989 635.73 512.879 643.069 523.183L643.06 454.009Z"/>
	<path fill="#274A60" d="M243.679 453.267C258.476 452.837 278.948 451.985 293.131 455.244C302.116 457.309 310.36 462.17 315.304 470.129C320.473 478.45 321.697 489.179 319.351 498.611C316.322 510.788 307.844 516.276 297.69 522.288C309.027 534.549 318.863 548.631 328.257 562.404C321.313 562.177 314.325 562.302 307.375 562.281L302.224 562.338Q289.942 543.455 275.891 525.849L260.881 525.767C260.669 537.897 260.982 550.037 260.74 562.169Q249.898 561.874 239.054 562.07Q239.498 507.782 239.07 453.494L243.679 453.267ZM261.427 471.797C259.613 478.81 261.001 499.922 260.969 508.444C271.404 508.51 284.422 509.73 293.2 502.957C296.911 499.044 298.436 494.826 298.193 489.413C297.974 484.51 296.469 479.697 292.717 476.357C285.346 469.797 270.609 471.048 261.427 471.797Z"/>
	<path fill="#274A60" d="M719.867 452.196C724.364 451.724 729.036 451.903 733.511 452.509C745.275 454.101 758.661 459.574 766.058 469.26C761.359 473.826 756.923 478.65 752.444 483.429C745.267 476.936 736.361 472.179 726.521 471.88C717.821 471.616 709.794 475.2 703.515 481.113C696.605 487.621 692.881 496.425 692.643 505.894C692.401 515.544 695.559 524.765 702.32 531.742C708.492 538.111 717.109 542.47 726.074 542.6C737.346 542.764 746.25 536.815 754.054 529.258C758.012 533.055 761.84 537.015 765.717 540.896L787.935 489.328C792.84 477.701 797.201 465.794 802.679 454.422Q812.286 454.132 821.889 454.515Q831.248 477.312 841.704 499.626C851.21 520.318 860.59 541.327 868.961 562.505L846.441 562.714C842.474 553.556 837.719 544.519 834.222 535.192Q820.365 535.211 806.509 535.063C801.138 535.021 795.575 535.298 790.254 534.629Q784.515 548.579 778.614 562.461L757.016 562.455C758.488 558.156 760.633 553.955 762.722 549.925C753.897 555.47 745.622 561.002 735.156 562.783Q733.846 562.994 732.528 563.14Q731.209 563.286 729.885 563.367Q728.561 563.448 727.234 563.464Q725.908 563.48 724.582 563.43Q723.257 563.381 721.935 563.267Q720.613 563.152 719.299 562.973Q717.984 562.794 716.68 562.55Q715.376 562.306 714.086 561.999Q712.796 561.691 711.522 561.321Q710.248 560.95 708.994 560.517Q707.74 560.085 706.508 559.591Q705.277 559.097 704.072 558.543Q702.866 557.989 701.689 557.377Q700.513 556.765 699.367 556.095Q698.222 555.426 697.111 554.701Q696 553.976 694.926 553.197C682.798 544.514 673.774 531.308 671.492 516.452C669.249 501.846 672.273 486.184 681.204 474.252C690.534 461.788 704.605 454.353 719.867 452.196ZM811.692 483.243C807.448 494.29 802.58 505.08 798.014 515.995L812.75 516.033L826.128 516.042C823.505 510.532 814.095 485.34 811.692 483.243Z"/>
	<path fill="#274A60" d="M919.312 436.696C935.388 435.585 950.055 439.499 963.104 449.161C976.837 459.33 984.902 473.949 987.328 490.809Q987.554 492.366 987.703 493.933Q987.852 495.5 987.923 497.072Q987.993 498.644 987.986 500.218Q987.979 501.792 987.893 503.363Q987.807 504.934 987.644 506.5Q987.481 508.065 987.24 509.62Q986.999 511.175 986.681 512.717Q986.363 514.258 985.969 515.781Q985.575 517.305 985.106 518.807Q984.636 520.309 984.093 521.786Q983.55 523.263 982.934 524.712Q982.318 526.16 981.631 527.576Q980.944 528.992 980.188 530.372Q979.431 531.752 978.607 533.092Q977.783 534.433 976.894 535.731Q976.004 537.03 975.051 538.282C964.15 552.84 950.018 560.897 932.124 563.439C915.764 564.233 900.745 561.713 887.33 551.703Q886.053 550.743 884.826 549.721Q883.599 548.698 882.423 547.617Q881.248 546.535 880.128 545.396Q879.008 544.257 877.946 543.064Q876.884 541.871 875.883 540.626Q874.881 539.382 873.943 538.089Q873.004 536.797 872.131 535.459Q871.258 534.122 870.452 532.742Q869.646 531.363 868.91 529.946Q868.174 528.528 867.509 527.076Q866.844 525.623 866.252 524.14Q865.66 522.656 865.142 521.145Q864.625 519.634 864.183 518.099Q863.741 516.564 863.376 515.009Q863.01 513.454 862.723 511.883Q862.435 510.312 862.226 508.728Q862.011 507.15 861.875 505.564Q861.739 503.977 861.681 502.386Q861.624 500.795 861.645 499.203Q861.667 497.611 861.768 496.022Q861.868 494.432 862.048 492.85Q862.227 491.268 862.485 489.697Q862.742 488.126 863.078 486.569Q863.413 485.012 863.825 483.474Q864.237 481.936 864.725 480.421Q865.213 478.905 865.776 477.415Q866.338 475.926 866.974 474.466Q867.61 473.006 868.317 471.58Q869.025 470.153 869.802 468.764Q870.58 467.374 871.425 466.025Q872.27 464.675 873.182 463.37Q874.093 462.064 875.068 460.805C886.438 446.048 901.137 439.119 919.312 436.696ZM924.441 446.215C909.376 447.171 894.937 452.074 884.782 463.757C875.337 474.623 870.606 490.203 871.701 504.5Q871.814 505.836 871.992 507.165Q872.17 508.495 872.412 509.813Q872.655 511.132 872.961 512.438Q873.268 513.744 873.638 515.033Q874.008 516.322 874.44 517.591Q874.872 518.861 875.365 520.107Q875.859 521.354 876.412 522.576Q876.966 523.797 877.579 524.99Q878.191 526.183 878.861 527.345Q879.531 528.507 880.257 529.634Q880.982 530.762 881.762 531.853Q882.542 532.944 883.374 533.996Q884.206 535.047 885.088 536.057Q885.97 537.067 886.901 538.033Q887.831 538.999 888.808 539.918Q889.784 540.837 890.804 541.708C900.56 549.963 914.948 555.497 927.832 554.356C929.222 554.233 930.604 554.054 931.99 553.891C947.112 551.254 959.603 543.864 968.464 531.184Q969.247 530.065 969.973 528.908Q970.699 527.751 971.367 526.559Q972.035 525.367 972.643 524.144Q973.251 522.92 973.797 521.668Q974.343 520.416 974.826 519.138Q975.309 517.86 975.728 516.56Q976.147 515.26 976.501 513.941Q976.855 512.621 977.143 511.286Q977.431 509.95 977.652 508.602Q977.873 507.254 978.027 505.897Q978.18 504.539 978.266 503.176Q978.352 501.813 978.371 500.447Q978.389 499.081 978.339 497.716Q978.289 496.35 978.171 494.99Q978.054 493.628 977.868 492.275Q977.683 490.922 977.431 489.579C975.919 481.407 972.555 474.606 967.839 467.838C968.729 465.809 969.598 464.01 970.929 462.231C968.223 459.338 965.524 457.024 962.122 454.96L958.564 458.053C947.816 450.621 937.712 446.085 924.441 446.215Z"/>
	<path fill="#319949" d="M923.385 450.665C935.766 450.612 945.509 454.585 955.386 461.8C952.035 468.657 947.19 474.767 942.843 481.01Q932.599 495.805 922.136 510.445C915.005 502.629 908.085 494.061 900.363 486.87C899.139 485.73 897.468 483.951 895.646 484.183C892.725 484.556 890.96 487.134 889.272 489.271C898.637 505.755 911.737 521.261 923.85 535.84C927.821 530.438 931.345 524.6 935.011 518.983Q945.717 502.76 955.949 486.235C958.923 481.419 962.02 476.641 964.72 471.665C969.204 478.216 972.158 486.244 973.068 494.123C974.614 507.504 970.325 520.793 961.971 531.253C954.006 541.227 943.092 547.878 930.324 549.282Q929.149 549.404 927.97 549.467Q926.791 549.531 925.611 549.536Q924.43 549.542 923.25 549.489Q922.071 549.436 920.895 549.326Q919.719 549.215 918.551 549.046Q917.382 548.877 916.223 548.651Q915.064 548.425 913.918 548.142Q912.772 547.859 911.641 547.52Q910.51 547.181 909.397 546.786Q908.284 546.392 907.191 545.943Q906.099 545.494 905.031 544.992Q903.962 544.49 902.919 543.935Q901.877 543.381 900.863 542.776Q899.849 542.171 898.866 541.517Q897.883 540.863 896.933 540.161Q895.984 539.459 895.07 538.711Q894.112 537.955 893.193 537.152Q892.274 536.348 891.397 535.5Q890.519 534.652 889.685 533.761Q888.851 532.87 888.062 531.938Q887.274 531.007 886.533 530.037Q885.792 529.067 885.1 528.062Q884.409 527.056 883.768 526.017Q883.128 524.978 882.54 523.908Q881.953 522.839 881.419 521.741Q880.886 520.643 880.408 519.52Q879.93 518.397 879.509 517.252Q879.087 516.106 878.724 514.941Q878.361 513.776 878.056 512.594Q877.751 511.412 877.506 510.217Q877.261 509.021 877.076 507.815Q876.891 506.608 876.766 505.394Q876.637 504.152 876.571 502.905Q876.504 501.658 876.499 500.409Q876.494 499.16 876.552 497.913Q876.609 496.665 876.728 495.422Q876.847 494.179 877.028 492.943Q877.208 491.707 877.45 490.482Q877.692 489.257 877.994 488.045Q878.297 486.834 878.659 485.638Q879.021 484.443 879.442 483.267Q879.863 482.092 880.342 480.938Q880.82 479.785 881.356 478.657Q881.891 477.529 882.482 476.428Q883.073 475.328 883.718 474.259Q884.362 473.189 885.059 472.153Q885.756 471.117 886.504 470.116Q887.252 469.116 888.048 468.154C897.344 456.938 909.13 451.982 923.385 450.665Z"/>
</svg>
